<?xml version="1.0" standalone="no"?>
<!DOCTYPE svg PUBLIC "-//W3C//DTD SVG 20010904//EN"
 "http://www.w3.org/TR/2001/REC-SVG-20010904/DTD/svg10.dtd">
<svg version="1.0" xmlns="http://www.w3.org/2000/svg"
 width="500.000000pt" height="500.000000pt" viewBox="0 0 500.000000 500.000000"
 preserveAspectRatio="xMidYMid meet">
<metadata>
Created by potrace 1.14, written by Peter Selinger 2001-2017
</metadata>
<g transform="translate(0.000000,500.000000) scale(0.100000,-0.100000)"
fill="#000000" stroke="none">
<path d="M1958 4585 c-124 -31 -245 -126 -300 -235 l-27 -53 -108 -3 c-116 -2
-177 -17 -251 -60 -169 -99 -262 -253 -268 -443 -2 -46 -5 -85 -7 -88 -3 -2
-20 -6 -38 -8 -122 -16 -234 -73 -317 -164 -99 -108 -137 -209 -136 -361 0
-94 4 -114 33 -187 17 -44 38 -87 46 -93 13 -11 7 -21 -40 -71 -58 -64 -111
-163 -131 -245 -11 -50 -12 -208 -1 -249 11 -40 35 -101 58 -145 24 -44 123
-153 167 -182 l22 -15 -27 -59 c-24 -51 -28 -72 -28 -149 0 -82 3 -97 32 -155
17 -36 51 -84 74 -108 48 -48 147 -101 197 -104 19 -1 35 -5 37 -8 2 -4 5 -42
6 -86 9 -375 290 -675 664 -710 66 -6 72 -9 110 -48 94 -99 192 -145 325 -151
178 -9 329 69 427 219 l26 40 17 -35 c22 -42 101 -123 152 -155 155 -98 380
-93 525 12 21 15 56 47 78 70 38 41 44 43 107 48 194 14 376 109 504 264 30
36 54 71 54 78 0 7 4 14 8 16 10 4 51 91 69 148 21 63 27 113 28 207 0 76 4
88 27 84 3 0 32 8 63 18 108 36 199 120 240 221 36 90 25 246 -23 318 -14 22
-14 25 2 34 9 5 43 33 74 63 217 202 227 550 24 768 l-45 48 22 39 c69 123 88
288 47 415 -29 93 -68 156 -133 221 -89 88 -216 147 -333 153 -12 1 -15 16
-14 79 1 144 -53 272 -160 375 -104 100 -223 145 -374 143 l-92 -1 -25 50
c-49 96 -150 186 -255 226 -64 24 -201 33 -270 18 -112 -25 -267 -138 -300
-219 -16 -38 -21 -38 -43 3 -44 80 -151 167 -252 202 -67 23 -195 28 -267 10z"/>
</g>
</svg>
