<?xml version="1.0" standalone="no"?>
<!DOCTYPE svg PUBLIC "-//W3C//DTD SVG 20010904//EN"
 "http://www.w3.org/TR/2001/REC-SVG-20010904/DTD/svg10.dtd">
<svg version="1.0" xmlns="http://www.w3.org/2000/svg"
 width="300.000000pt" height="300.000000pt" viewBox="0 0 300.000000 300.000000"
 preserveAspectRatio="xMidYMid meet">
<metadata>
Created by potrace 1.14, written by Peter Selinger 2001-2017
</metadata>
<g transform="translate(0.000000,300.000000) scale(0.100000,-0.100000)"
fill="#000000" stroke="none">
<path d="M1347 2495 c-155 -53 -277 -235 -272 -405 1 -43 8 -78 22 -105 l20
-40 -34 -35 c-19 -19 -50 -57 -71 -85 -20 -27 -39 -52 -43 -55 -32 -25 -203
-340 -239 -440 -48 -134 -28 -324 47 -433 30 -43 102 -106 151 -131 17 -9 32
-20 32 -24 0 -16 -17 -27 -45 -31 -38 -4 -94 -34 -121 -63 -64 -72 -76 -198
-26 -260 27 -33 41 -46 52 -50 5 -1 11 -37 13 -78 4 -77 -13 -172 -38 -224 -8
-16 -15 -31 -15 -33 0 -1 296 -3 658 -3 l658 0 1 38 c2 72 3 85 9 80 3 -4 7
-12 8 -20 1 -7 11 -32 22 -55 l19 -43 117 0 c65 0 118 4 118 9 0 5 -4 11 -9
13 -9 3 -89 165 -96 195 -3 10 -11 45 -20 78 -15 60 -15 60 9 81 64 57 90 176
55 249 -11 21 -19 42 -19 47 0 13 -79 81 -116 101 -19 10 -40 15 -46 11 -7 -4
-8 -3 -4 4 7 11 -7 15 -56 15 -10 0 -18 1 -18 2 0 1 8 11 18 23 9 11 24 29 32
39 28 33 67 131 76 191 12 79 1 239 -19 292 -3 8 -15 45 -27 82 -41 130 -154
310 -275 439 -61 66 -158 149 -174 149 -6 0 -11 3 -11 8 0 10 -66 45 -85 45
-15 0 -21 38 -8 51 11 11 15 37 15 126 1 87 -17 144 -61 194 -43 49 -140 73
-204 51z"/>
</g>
</svg>
